<svg width="28" height="28" viewBox="0 0 28 28" fill="none" xmlns="http://www.w3.org/2000/svg">
<path d="M7.58325 20.4163L16.3333 16.333L20.4166 7.58301L11.6666 11.6663L7.58325 20.4163ZM13.9999 15.1663C13.6694 15.1663 13.3925 15.0543 13.1693 14.8303C12.9453 14.6071 12.8333 14.3302 12.8333 13.9997C12.8333 13.6691 12.9453 13.3918 13.1693 13.1678C13.3925 12.9446 13.6694 12.833 13.9999 12.833C14.3305 12.833 14.6078 12.9446 14.8318 13.1678C15.055 13.3918 15.1666 13.6691 15.1666 13.9997C15.1666 14.3302 15.055 14.6071 14.8318 14.8303C14.6078 15.0543 14.3305 15.1663 13.9999 15.1663ZM13.9999 25.6663C12.386 25.6663 10.8694 25.3599 9.44992 24.747C8.03048 24.1349 6.79575 23.3038 5.74575 22.2538C4.69575 21.2038 3.8647 19.9691 3.25259 18.5497C2.6397 17.1302 2.33325 15.6136 2.33325 13.9997C2.33325 12.3858 2.6397 10.8691 3.25259 9.44968C3.8647 8.03023 4.69575 6.79551 5.74575 5.74551C6.79575 4.69551 8.03048 3.86406 9.44992 3.25117C10.8694 2.63906 12.386 2.33301 13.9999 2.33301C15.6138 2.33301 17.1305 2.63906 18.5499 3.25117C19.9694 3.86406 21.2041 4.69551 22.2541 5.74551C23.3041 6.79551 24.1351 8.03023 24.7473 9.44968C25.3601 10.8691 25.6666 12.3858 25.6666 13.9997C25.6666 15.6136 25.3601 17.1302 24.7473 18.5497C24.1351 19.9691 23.3041 21.2038 22.2541 22.2538C21.2041 23.3038 19.9694 24.1349 18.5499 24.747C17.1305 25.3599 15.6138 25.6663 13.9999 25.6663ZM13.9999 23.333C16.6055 23.333 18.8124 22.4288 20.6208 20.6205C22.4291 18.8122 23.3333 16.6052 23.3333 13.9997C23.3333 11.3941 22.4291 9.18717 20.6208 7.37884C18.8124 5.57051 16.6055 4.66634 13.9999 4.66634C11.3944 4.66634 9.18742 5.57051 7.37909 7.37884C5.57075 9.18717 4.66659 11.3941 4.66659 13.9997C4.66659 16.6052 5.57075 18.8122 7.37909 20.6205C9.18742 22.4288 11.3944 23.333 13.9999 23.333Z" fill="#7D7D7D"/>
</svg>
